<?xml version="1.0" encoding="utf-8"?>
<!-- Generator: Adobe Illustrator 24.2.1, SVG Export Plug-In . SVG Version: 6.00 Build 0)  -->
<svg version="1.1" id="Capa_1" xmlns="http://www.w3.org/2000/svg" xmlns:xlink="http://www.w3.org/1999/xlink" x="0px" y="0px"
	 viewBox="0 0 224.79 49.48" style="enable-background:new 0 0 224.79 49.48;" xml:space="preserve">
<style type="text/css">
	.st0{fill:#021D49;}
	.st1{fill:#0075C9;}
	.st2{fill:#007AC2;}
	.st3{fill:#123274;}
	.st4{fill:none;stroke:#007AC2;stroke-miterlimit:10;}
</style>
<g>
	<g>
		<g>
			<path class="st0" d="M29.17,17.32l-0.42,2.4c-0.04,0.21-0.11,0.41-0.22,0.6c-0.11,0.19-0.23,0.38-0.35,0.57l-8.99,14.63
				c-0.09,0.16-0.19,0.28-0.3,0.38c-0.11,0.1-0.25,0.14-0.4,0.14h-4.65c-0.3,0-0.44-0.11-0.44-0.34c0-0.09,0.03-0.17,0.08-0.24
				l9.22-14.5v-0.03c0-0.04-0.03-0.07-0.08-0.09c-0.05-0.03-0.1-0.04-0.13-0.04h-6.3c-0.3,0-0.44-0.14-0.44-0.42v-0.08l0.55-3.19
				c0.03-0.14,0.11-0.25,0.24-0.35c0.12-0.1,0.25-0.14,0.39-0.14h11.68c0.38,0,0.57,0.19,0.57,0.57V17.32z"/>
			<path class="st0" d="M42.44,22.57c0,0.78-0.08,1.62-0.24,2.51l-0.44,2.53c-0.28,1.62-0.67,2.98-1.16,4.09
				c-0.5,1.11-1.11,2-1.83,2.68c-0.72,0.68-1.56,1.17-2.52,1.46c-0.96,0.3-2.05,0.44-3.29,0.44c-1.9,0-3.37-0.52-4.4-1.57
				C27.52,33.67,27,32.13,27,30.09c0-0.77,0.08-1.59,0.24-2.48l0.44-2.53c0.3-1.65,0.7-3.04,1.21-4.15
				c0.51-1.11,1.14-2.01,1.88-2.68c0.74-0.67,1.58-1.15,2.53-1.44c0.95-0.29,2.01-0.43,3.17-0.43c1.95,0,3.43,0.53,4.44,1.59
				C41.93,19.03,42.44,20.57,42.44,22.57z M37.13,22.75c0-0.78-0.13-1.29-0.39-1.53c-0.26-0.24-0.62-0.35-1.07-0.35
				c-0.28,0-0.54,0.05-0.8,0.14c-0.25,0.1-0.49,0.29-0.71,0.59c-0.22,0.3-0.43,0.72-0.63,1.27c-0.2,0.55-0.38,1.28-0.54,2.21
				l-0.44,2.53c-0.09,0.51-0.15,0.95-0.2,1.33c-0.04,0.38-0.07,0.72-0.07,1.02c0,0.77,0.13,1.27,0.39,1.5
				c0.26,0.24,0.62,0.35,1.07,0.35c0.31,0,0.6-0.04,0.86-0.13c0.26-0.09,0.5-0.28,0.71-0.57c0.21-0.3,0.4-0.72,0.59-1.27
				c0.18-0.55,0.35-1.29,0.51-2.23l0.44-2.53c0.09-0.5,0.15-0.94,0.2-1.32C37.11,23.38,37.13,23.05,37.13,22.75z"/>
		</g>
		<path class="st1" d="M25.26,27.39c-3.22,0.56-7.61,0.98-10.91,1.98c-0.05,0.02-0.04,0.04,0.01,0.04
			c8.44-0.25,16.61-0.2,23.02,0.02c0.02,0,0.04-0.03,0.03-0.05c-0.15-0.77-0.75-1.64-2.53-1.63l-1.03,0c0,0-0.02,0.02-0.02,0.03
			c0.29,0.73-0.52,1.22-1.05,0.78c-0.22-0.19-0.44-0.65,0.12-1.05c0.42-0.3,1.07-0.73,1.45-0.97c1.36-0.87,1.17-2.12-0.64-2.26
			c-4.37-0.33-12.18-0.78-15.27-1.03c-0.07-0.01-0.11,0.04-0.06,0.07c2.55,1.39,4.88,1.52,7.43,2.48
			C27.27,26.33,26.98,27.08,25.26,27.39"/>
	</g>
	<path class="st2" d="M63.18,22.07c-0.11-0.18-0.25-0.32-0.42-0.43c-0.17-0.1-0.34-0.17-0.54-0.21c-0.18-0.03-0.36-0.05-0.54-0.05
		c-0.18,0-0.37,0.02-0.56,0.06c-0.21,0.04-0.41,0.11-0.6,0.21c-0.2,0.1-0.39,0.24-0.56,0.41c-0.17,0.17-0.33,0.39-0.46,0.66
		l-5.23,9.5c-0.03,0.07-0.05,0.15-0.05,0.24c0,0.1,0.03,0.21,0.12,0.28c0.09,0.07,0.19,0.09,0.29,0.09h1.08
		c0.11,0,0.22-0.04,0.31-0.1c0.09-0.06,0.17-0.14,0.21-0.25l1.8-3.68h4.35l0.43,3.64c0.02,0.1,0.05,0.18,0.1,0.25
		c0.07,0.1,0.19,0.14,0.3,0.14h1.08c0.13,0,0.26-0.03,0.34-0.13c0.09-0.09,0.12-0.22,0.12-0.35v-0.08l-1.34-9.52
		C63.37,22.48,63.29,22.25,63.18,22.07 M58.77,27.27l2.26-4.08c0.09-0.16,0.3-0.19,0.43-0.19c0.28,0.01,0.31,0.19,0.31,0.19
		l0.48,4.08H58.77z M73.2,24.28c-0.29-0.29-0.65-0.52-1.07-0.69c-0.43-0.17-0.93-0.25-1.5-0.25c-1.3,0-2.38,0.36-3.21,1.09
		c-0.83,0.73-1.38,1.77-1.66,3.11l-0.23,1.15c-0.07,0.37-0.11,0.72-0.11,1.05c0,0.58,0.11,1.08,0.32,1.49
		c0.21,0.41,0.49,0.74,0.84,1c0.34,0.25,0.74,0.44,1.18,0.55c0.43,0.11,0.87,0.17,1.32,0.17h0.01c0.61,0,1.15-0.02,1.62-0.07
		c0.47-0.05,0.98-0.12,1.51-0.21c0.16-0.02,0.3-0.06,0.4-0.16c0.09-0.09,0.13-0.21,0.16-0.35l0.11-0.56l0-0.02V31.5
		c0-0.09-0.04-0.2-0.13-0.26c-0.08-0.06-0.17-0.07-0.27-0.07h-0.11c-0.43,0.06-0.92,0.11-1.47,0.16c-0.55,0.05-1.08,0.07-1.6,0.07
		c-0.66,0-1.17-0.13-1.53-0.38c-0.34-0.24-0.52-0.62-0.52-1.21c0-0.15,0.01-0.3,0.03-0.46c0.02-0.15,0.05-0.32,0.11-0.49l0.02-0.08
		h5.82c0.16,0,0.31-0.04,0.4-0.16c0.07-0.09,0.12-0.21,0.15-0.33l0.14-0.69c0.07-0.36,0.11-0.7,0.11-1.02
		c0-0.44-0.07-0.86-0.21-1.25C73.71,24.91,73.49,24.57,73.2,24.28 M72.06,27.33H67.7c0.08-0.32,0.19-0.62,0.33-0.89
		c0.16-0.3,0.35-0.57,0.58-0.79c0.23-0.23,0.49-0.4,0.79-0.53c0.3-0.12,0.63-0.19,1-0.19c1.23,0.03,1.73,0.49,1.75,1.58
		C72.16,26.76,72.13,27.03,72.06,27.33 M80.3,24.52l0.12-0.69l0-0.01v-0.08c0-0.11-0.05-0.24-0.15-0.3
		c-0.1-0.07-0.21-0.09-0.34-0.09H79.9c-0.43,0-0.86,0.05-1.3,0.15c-0.35,0.08-0.72,0.24-1.09,0.48v0v-0.08
		c0-0.12-0.03-0.23-0.12-0.32c-0.08-0.08-0.2-0.11-0.32-0.11h-0.83c-0.13,0-0.26,0.05-0.36,0.14c-0.1,0.08-0.17,0.19-0.2,0.31
		l-1.59,8.41v0.08c0,0.12,0.03,0.23,0.12,0.31c0.08,0.08,0.2,0.11,0.31,0.11h0.87c0.14,0,0.27-0.05,0.37-0.13
		c0.11-0.08,0.18-0.2,0.22-0.32l1.28-6.83c0.4-0.23,0.77-0.38,1.11-0.47c0.36-0.09,0.78-0.14,1.28-0.14h0.06
		C79.99,24.95,80.25,24.79,80.3,24.52 M87.48,24.26c-0.3-0.29-0.66-0.52-1.09-0.68c-0.43-0.16-0.93-0.24-1.49-0.24
		c-2.7-0.02-4.37,1.42-4.87,4.15l-0.23,1.25c-0.03,0.16-0.05,0.31-0.06,0.46c-0.02,0.15-0.03,0.31-0.03,0.47
		c0,0.48,0.07,0.92,0.22,1.31c0.15,0.4,0.37,0.75,0.66,1.04c0.29,0.29,0.65,0.52,1.08,0.68c0.43,0.16,0.92,0.24,1.47,0.24
		c0.71,0,1.35-0.09,1.91-0.29c0.56-0.19,1.04-0.47,1.44-0.83c0.4-0.36,0.73-0.8,0.98-1.31c0.25-0.51,0.44-1.08,0.56-1.72l0.23-1.25
		c0.02-0.16,0.05-0.32,0.06-0.47c0.02-0.16,0.03-0.32,0.03-0.48c0-0.47-0.07-0.9-0.21-1.3C88,24.9,87.78,24.55,87.48,24.26
		 M86.45,27.01c-0.01,0.15-0.03,0.3-0.07,0.47l-0.23,1.25c-0.07,0.39-0.19,0.75-0.35,1.07c-0.16,0.32-0.36,0.59-0.6,0.82
		c-0.23,0.23-0.5,0.41-0.81,0.53c-0.3,0.13-0.64,0.19-1.01,0.19c-0.68,0-1.13-0.15-1.38-0.39c-0.26-0.25-0.4-0.65-0.4-1.21
		c0-0.28,0.03-0.59,0.1-0.94l0.23-1.25c0.15-0.82,0.46-1.46,0.94-1.92c0.47-0.46,1.06-0.69,1.8-0.69c0.67,0,1.13,0.15,1.38,0.41
		c0.26,0.27,0.4,0.67,0.4,1.23C86.47,26.72,86.46,26.86,86.45,27.01 M92.62,21.01c0-0.11-0.03-0.22-0.11-0.3
		c-0.08-0.08-0.19-0.11-0.3-0.11h-0.92c-0.27-0.02-0.52,0.18-0.55,0.45L88.6,32.32v0.08c0,0.11,0.02,0.23,0.11,0.31
		c0.08,0.08,0.19,0.12,0.29,0.12h0.93c0.13,0,0.26-0.05,0.36-0.14c0.09-0.09,0.16-0.19,0.19-0.31l2.13-11.28V21.01z M95.26,23.45
		h-0.85c-0.13,0-0.26,0.05-0.37,0.13c-0.1,0.08-0.18,0.19-0.22,0.32l-1.59,8.41v0.08c0,0.12,0.03,0.24,0.12,0.32
		c0.09,0.08,0.2,0.11,0.32,0.11h0.86c0.14,0,0.27-0.05,0.37-0.13c0.1-0.08,0.18-0.19,0.22-0.32l1.59-8.41v-0.08
		c0-0.12-0.03-0.24-0.12-0.32C95.49,23.48,95.38,23.45,95.26,23.45 M94.25,22.58h0.96c0.11,0,0.22-0.02,0.32-0.09
		c0.06-0.05,0.14-0.11,0.24-0.2l1.79-1.5c0.08-0.07,0.14-0.15,0.15-0.27c0-0.21-0.22-0.26-0.34-0.27h-1.17
		c-0.12,0.01-0.24,0.02-0.34,0.09c-0.06,0.05-0.14,0.11-0.24,0.2l-1.51,1.47c-0.08,0.08-0.15,0.17-0.16,0.3
		C93.94,22.49,94.13,22.58,94.25,22.58 M103.97,24.13c-0.23-0.25-0.53-0.45-0.89-0.59c-0.36-0.14-0.79-0.21-1.28-0.21
		c-0.62,0-1.15,0.08-1.62,0.24c-0.35,0.12-0.69,0.26-1.03,0.43l0.01-0.03l0-0.01v-0.08c0-0.1-0.04-0.2-0.1-0.28
		c-0.08-0.11-0.21-0.15-0.34-0.15h-0.87c-0.13,0-0.26,0.05-0.36,0.14c-0.1,0.08-0.17,0.19-0.2,0.31l-1.59,8.41v0.08
		c0,0.1,0.04,0.2,0.09,0.28c0.08,0.11,0.21,0.15,0.33,0.15h0.88c0.14,0,0.26-0.05,0.37-0.13c0.11-0.08,0.18-0.19,0.22-0.32l1.3-6.87
		c0.53-0.23,0.96-0.38,1.31-0.46c0.37-0.08,0.72-0.12,1.05-0.12c0.64-0.01,1.04,0.12,1.2,0.28c0.19,0.18,0.29,0.44,0.29,0.8
		c0,0.12-0.01,0.26-0.03,0.42c-0.02,0.16-0.04,0.31-0.06,0.46l-0.92,5.41v0.08c0,0.12,0.03,0.24,0.12,0.32
		c0.09,0.08,0.21,0.11,0.33,0.11h0.86c0.13,0,0.26-0.05,0.37-0.13c0.11-0.08,0.18-0.19,0.22-0.32l0.93-5.41
		c0.06-0.32,0.09-0.62,0.09-0.92c0-0.37-0.05-0.71-0.16-1.04C104.37,24.67,104.2,24.38,103.97,24.13 M112.95,24.28
		c-0.29-0.29-0.65-0.52-1.07-0.69c-0.43-0.17-0.93-0.25-1.5-0.25c-1.3,0-2.37,0.36-3.21,1.08c-0.83,0.73-1.38,1.77-1.66,3.11
		l-0.23,1.15c-0.07,0.37-0.11,0.72-0.11,1.05c0,0.58,0.11,1.08,0.32,1.49c0.21,0.4,0.49,0.74,0.84,1c0.34,0.25,0.74,0.44,1.17,0.55
		c0.43,0.11,0.88,0.17,1.33,0.17c0.61,0,1.15-0.02,1.63-0.07c0.47-0.05,0.97-0.12,1.51-0.21c0.16-0.02,0.3-0.06,0.4-0.16
		c0.09-0.09,0.13-0.21,0.16-0.34l0.11-0.56l0-0.01V31.5c0-0.09-0.04-0.2-0.13-0.26c-0.08-0.06-0.17-0.07-0.27-0.07h-0.11
		c-0.43,0.06-0.92,0.11-1.47,0.16c-0.55,0.05-1.08,0.07-1.6,0.07c-0.67,0-1.17-0.13-1.53-0.38c-0.34-0.24-0.52-0.62-0.52-1.21
		c0-0.15,0.01-0.3,0.03-0.46c0.02-0.16,0.05-0.32,0.11-0.5l0.02-0.08h5.82c0.15,0,0.31-0.04,0.4-0.16c0.08-0.09,0.12-0.21,0.15-0.33
		l0.14-0.69c0.07-0.36,0.11-0.7,0.11-1.02c0-0.44-0.07-0.86-0.2-1.25C113.46,24.91,113.24,24.57,112.95,24.28 M111.81,27.33h-4.37
		c0.08-0.32,0.19-0.62,0.33-0.89c0.16-0.3,0.35-0.57,0.58-0.79c0.23-0.23,0.49-0.4,0.79-0.53c0.3-0.12,0.63-0.19,1-0.19
		c1.23,0.03,1.73,0.49,1.75,1.58C111.91,26.76,111.88,27.03,111.81,27.33 M122.93,24.13c-0.01-0.25-0.23-0.37-0.45-0.41
		c-0.45-0.11-0.95-0.2-1.5-0.28c-0.55-0.07-1.1-0.11-1.64-0.11c-0.55,0-1.07,0.07-1.59,0.19c-0.51,0.13-0.99,0.35-1.41,0.65
		c-0.43,0.3-0.79,0.71-1.1,1.2c-0.31,0.5-0.54,1.11-0.68,1.84l-0.32,1.63c-0.07,0.35-0.11,0.69-0.11,1.02
		c0,0.52,0.07,0.98,0.23,1.37c0.16,0.39,0.37,0.71,0.63,0.96c0.27,0.25,0.58,0.44,0.94,0.56c0.35,0.12,0.72,0.18,1.12,0.18h0.01
		c0.3,0,0.58-0.02,0.83-0.06c0.25-0.04,0.49-0.1,0.71-0.19c0.23-0.08,0.45-0.19,0.68-0.32c0.13-0.07,0.27-0.15,0.41-0.24l-0.03,0.13
		l0,0.01v0.11c0,0.1,0.03,0.2,0.08,0.29c0.09,0.12,0.22,0.14,0.35,0.14h0.71c0.13,0,0.26-0.05,0.36-0.14
		c0.1-0.08,0.17-0.19,0.2-0.31l1.53-8.08C122.92,24.24,122.93,24.19,122.93,24.13 M119.83,30.51c-0.47,0.29-0.89,0.5-1.26,0.66
		c-0.39,0.16-0.77,0.23-1.16,0.23c-0.39,0-0.71-0.11-0.99-0.34c-0.25-0.2-0.39-0.59-0.39-1.21c0-0.12,0-0.23,0.02-0.36
		c0.01-0.13,0.03-0.25,0.05-0.36l0.32-1.7c0.16-0.85,0.47-1.49,0.93-1.91c0.44-0.42,1.1-0.64,2-0.64c0.37,0,0.69,0.02,0.95,0.05
		c0.2,0.02,0.4,0.05,0.58,0.08L119.83,30.51z M130.08,23.55c-0.19-0.03-0.37-0.06-0.53-0.09c-0.17-0.03-0.36-0.05-0.56-0.07
		c-0.2-0.02-0.42-0.03-0.66-0.04c-0.25-0.01-0.54-0.02-0.89-0.02c-0.45,0-0.9,0.04-1.35,0.12c-0.46,0.08-0.87,0.22-1.23,0.43
		c-0.36,0.21-0.66,0.49-0.89,0.83c-0.24,0.36-0.35,0.8-0.35,1.32c0,0.81,0.55,1.52,1.55,2.13l1.62,0.97
		c0.41,0.24,0.68,0.44,0.79,0.59c0.12,0.16,0.17,0.3,0.17,0.44c0,0.24-0.05,0.43-0.14,0.58c-0.1,0.16-0.23,0.28-0.38,0.37
		c-0.17,0.09-0.37,0.17-0.59,0.21c-0.23,0.05-0.47,0.07-0.72,0.07c-0.15,0-0.34,0-0.57-0.02c-0.23-0.01-0.47-0.02-0.73-0.04
		c-0.25-0.01-0.5-0.04-0.75-0.06c-0.25-0.02-0.48-0.04-0.69-0.06h-0.12c-0.23-0.02-0.46,0.14-0.5,0.38l-0.11,0.58l0,0.01v0.07
		c0,0.12,0.05,0.26,0.16,0.32c0.08,0.05,0.16,0.09,0.26,0.11c0.22,0.05,0.44,0.09,0.69,0.12c0.25,0.03,0.49,0.06,0.75,0.07
		c0.25,0.02,0.49,0.03,0.73,0.04c0.24,0.01,0.46,0.02,0.65,0.02h0.01c0.49,0,0.97-0.05,1.44-0.14c0.48-0.1,0.9-0.26,1.27-0.48
		c0.37-0.23,0.67-0.53,0.9-0.9c0.23-0.38,0.34-0.85,0.34-1.4c0-0.39-0.12-0.77-0.35-1.11c-0.24-0.35-0.67-0.71-1.29-1.09l-1.6-0.97
		c-0.3-0.18-0.53-0.35-0.69-0.5c-0.14-0.14-0.2-0.28-0.2-0.44c0-0.21,0.05-0.37,0.14-0.48c0.1-0.13,0.23-0.23,0.4-0.31
		c0.17-0.08,0.35-0.14,0.56-0.17c0.21-0.03,0.41-0.05,0.61-0.05c0.49,0,0.97,0.01,1.44,0.04c0.46,0.03,0.85,0.06,1.15,0.09h0.07
		c0.25,0.02,0.48-0.16,0.52-0.42l0.09-0.54l0-0.01v-0.08C130.5,23.76,130.3,23.58,130.08,23.55"/>
	<path class="st2" d="M154.67,23.87c-0.4-0.09-0.89-0.17-1.46-0.25c-0.57-0.08-1.13-0.12-1.66-0.12c-0.67,0-1.27,0.07-1.8,0.22
		c-0.53,0.15-0.99,0.38-1.4,0.71c-0.4,0.33-0.73,0.75-1,1.27c-0.27,0.52-0.47,1.15-0.61,1.91l-0.23,1.2
		c-0.07,0.4-0.11,0.77-0.11,1.12c0,0.53,0.08,0.98,0.26,1.37c0.17,0.38,0.41,0.7,0.71,0.95c0.3,0.24,0.66,0.42,1.08,0.54
		c0.41,0.12,0.87,0.17,1.35,0.17c0.13,0,0.29-0.01,0.47-0.03c0.19-0.01,0.38-0.03,0.57-0.06c0.2-0.02,0.38-0.05,0.55-0.07
		c0.12-0.02,0.23-0.03,0.32-0.05l-0.02,0.08c-0.07,0.37-0.16,0.68-0.26,0.92c-0.1,0.24-0.24,0.44-0.42,0.58
		c-0.18,0.14-0.4,0.25-0.67,0.31c-0.27,0.07-0.6,0.1-0.98,0.1c-0.24,0-0.49-0.01-0.77-0.03c-0.28-0.02-0.56-0.03-0.84-0.05
		c-0.28-0.02-0.53-0.03-0.77-0.06c-0.24-0.03-0.43-0.05-0.58-0.06h-0.03h-0.04c-0.11,0-0.21,0.02-0.29,0.08
		c-0.08,0.05-0.14,0.14-0.17,0.24l-0.11,0.58c0,0.18,0.15,0.29,0.36,0.34c0.24,0.07,0.63,0.14,1.17,0.2c0.54,0.07,1.14,0.1,1.82,0.1
		c0.64,0,1.21-0.05,1.69-0.15c0.48-0.1,0.9-0.28,1.25-0.53c0.35-0.26,0.64-0.6,0.86-1.03c0.22-0.43,0.39-0.97,0.51-1.61l1.6-8.4
		v-0.01l0-0.03l0.02-0.09C155.06,24.02,154.89,23.91,154.67,23.87 M151.99,31.38c-0.13,0.03-0.27,0.05-0.43,0.07
		c-0.18,0.02-0.37,0.04-0.55,0.06c-0.18,0.02-0.36,0.02-0.53,0.03c-0.17,0.01-0.32,0.01-0.45,0.01c-0.67,0-1.15-0.12-1.45-0.34
		c-0.3-0.22-0.45-0.62-0.45-1.23c0-0.16,0.01-0.34,0.03-0.54c0.02-0.19,0.05-0.4,0.1-0.62l0.23-1.2c0.19-0.95,0.51-1.65,0.96-2.08
		c0.45-0.44,1.07-0.66,1.89-0.66c0.38,0,0.73,0.02,1.07,0.05c0.3,0.04,0.56,0.07,0.78,0.11L151.99,31.38z M182.1,21.81v-0.07
		c0-0.21-0.15-0.34-0.37-0.34h-0.91c-0.11,0-0.22,0.04-0.32,0.12c-0.09,0.07-0.16,0.17-0.19,0.28l-0.09,0.71v0.07
		c0,0.21,0.15,0.35,0.37,0.35h0.91c0.11,0,0.22-0.04,0.31-0.12c0.09-0.07,0.16-0.17,0.19-0.28L182.1,21.81z M146.57,24.92
		c0.27,0.01,0.47-0.12,0.51-0.35l0.13-0.69l0-0.01V23.8c0-0.21-0.18-0.31-0.4-0.31h-0.04c-0.42,0-0.85,0.05-1.28,0.15
		c-0.39,0.09-0.8,0.28-1.23,0.57l0.04-0.18v0v-0.08c0-0.21-0.14-0.35-0.35-0.35h-0.84c-0.11,0-0.22,0.04-0.31,0.12
		c-0.09,0.07-0.15,0.16-0.18,0.27l-1.58,8.4v0.08c0,0.21,0.14,0.34,0.35,0.34h0.87c0.12,0,0.22-0.04,0.31-0.11
		c0.09-0.08,0.16-0.17,0.19-0.28l1.29-6.86c0.42-0.24,0.81-0.4,1.16-0.5c0.36-0.09,0.8-0.14,1.3-0.14H146.57z M176.45,24.98h1.85
		c0.12,0,0.22-0.04,0.31-0.12c0.09-0.08,0.15-0.17,0.18-0.27l0.11-0.56v0v-0.08c0-0.21-0.15-0.35-0.37-0.35h-1.82l0.25-1.38v-0.06
		c0-0.18-0.12-0.31-0.3-0.31h-0.05l-0.95,0.13c-0.25,0.03-0.42,0.17-0.46,0.4l-0.22,1.22l-1.18,0.03c-0.11,0-0.21,0.03-0.3,0.1
		c-0.09,0.06-0.14,0.15-0.17,0.26l-0.09,0.45l0,0.01v0.06c-0.01,0.19,0.15,0.32,0.36,0.33l1.13,0.14l-1.07,5.66
		c-0.02,0.13-0.04,0.24-0.05,0.34c-0.01,0.1-0.02,0.21-0.02,0.32c0,0.59,0.21,1.03,0.65,1.28c0.42,0.25,0.94,0.37,1.55,0.37
		c0.17,0,0.36-0.01,0.56-0.03c0.2-0.01,0.39-0.03,0.57-0.06c0.14-0.02,0.24-0.06,0.31-0.12c0.06-0.06,0.1-0.13,0.13-0.22l0.11-0.6
		l0-0.01v-0.07c0-0.09-0.03-0.19-0.13-0.22c-0.06-0.02-0.12-0.03-0.2-0.03h-1.08c-0.28,0-0.48-0.03-0.59-0.07
		c-0.09-0.03-0.14-0.14-0.14-0.37c0-0.11,0.01-0.27,0.05-0.46L176.45,24.98z M199.69,24.19c0-0.18-0.17-0.29-0.39-0.33
		c-0.45-0.11-0.95-0.2-1.5-0.28c-0.55-0.07-1.09-0.11-1.63-0.11c-0.54,0-1.06,0.06-1.56,0.19c-0.51,0.13-0.97,0.34-1.39,0.64
		c-0.42,0.3-0.77,0.69-1.08,1.18c-0.3,0.49-0.52,1.09-0.67,1.81l-0.32,1.63c-0.07,0.34-0.11,0.68-0.11,1c0,0.51,0.07,0.96,0.23,1.34
		c0.15,0.38,0.36,0.69,0.62,0.94c0.26,0.24,0.56,0.42,0.91,0.54c0.35,0.12,0.71,0.18,1.1,0.18c0.3,0,0.57-0.02,0.81-0.06
		c0.24-0.04,0.47-0.1,0.7-0.19c0.23-0.08,0.45-0.18,0.67-0.31c0.18-0.1,0.37-0.21,0.57-0.34l-0.06,0.33v0.04v0.07
		c0,0.09,0.02,0.17,0.07,0.23c0.06,0.09,0.16,0.11,0.28,0.11h0.71c0.11,0,0.22-0.04,0.31-0.12c0.09-0.07,0.15-0.16,0.18-0.27
		l1.53-8.08C199.68,24.31,199.69,24.26,199.69,24.19 M196.74,30.62c-0.48,0.3-0.92,0.53-1.31,0.68c-0.39,0.16-0.79,0.24-1.19,0.24
		c-0.41,0-0.75-0.12-1.04-0.36c-0.27-0.23-0.42-0.65-0.42-1.27c0-0.12,0.01-0.24,0.02-0.37c0.01-0.13,0.03-0.25,0.05-0.37l0.32-1.69
		c0.16-0.87,0.48-1.52,0.95-1.96c0.47-0.44,1.15-0.66,2.06-0.66c0.38,0,0.7,0.02,0.96,0.05h0c0.23,0.03,0.46,0.06,0.67,0.1
		L196.74,30.62z M207.25,24.05c0.01-0.18-0.14-0.32-0.33-0.34c-0.19-0.03-0.37-0.06-0.53-0.09c-0.17-0.03-0.36-0.05-0.55-0.07
		c-0.2-0.02-0.41-0.03-0.66-0.04c-0.24-0.01-0.54-0.01-0.88-0.01c-0.44,0-0.89,0.04-1.33,0.11c-0.45,0.08-0.85,0.22-1.21,0.42
		c-0.35,0.2-0.64,0.47-0.86,0.81c-0.23,0.34-0.34,0.77-0.34,1.27c0,0.77,0.52,1.45,1.51,2.06l1.62,0.97
		c0.42,0.24,0.69,0.45,0.81,0.6c0.13,0.17,0.19,0.33,0.19,0.49c0,0.25-0.05,0.46-0.16,0.62c-0.11,0.17-0.24,0.3-0.42,0.4
		c-0.17,0.1-0.38,0.17-0.62,0.22s-0.48,0.07-0.74,0.07c-0.15,0-0.34-0.01-0.57-0.02c-0.23-0.01-0.47-0.02-0.73-0.04
		c-0.25-0.02-0.51-0.03-0.75-0.06c-0.25-0.02-0.48-0.04-0.69-0.07h-0.12c-0.21-0.01-0.38,0.11-0.42,0.31l-0.11,0.58l0,0.01v0.06
		c0,0.1,0.04,0.21,0.13,0.26c0.07,0.04,0.15,0.08,0.24,0.1c0.21,0.05,0.43,0.09,0.67,0.12c0.25,0.04,0.49,0.06,0.74,0.08
		c0.25,0.02,0.49,0.03,0.73,0.04c0.24,0.01,0.45,0.01,0.65,0.01c0.49,0,0.97-0.05,1.44-0.14c0.47-0.09,0.89-0.25,1.25-0.47
		c0.36-0.22,0.65-0.52,0.87-0.87c0.22-0.37,0.33-0.82,0.33-1.36c0-0.38-0.12-0.74-0.34-1.07c-0.23-0.34-0.65-0.69-1.26-1.06
		l-1.6-0.97c-0.31-0.19-0.54-0.36-0.71-0.52c-0.15-0.15-0.23-0.31-0.23-0.5c0-0.23,0.05-0.4,0.16-0.53
		c0.11-0.14,0.25-0.25,0.43-0.33c0.18-0.08,0.37-0.14,0.58-0.17c0.21-0.03,0.42-0.05,0.62-0.05c0.49,0,0.98,0.01,1.44,0.04
		c0.47,0.03,0.85,0.06,1.16,0.09h0.06c0.22,0.01,0.4-0.13,0.43-0.34l0.09-0.54l0-0.02V24.05z M189.95,24.25
		c-0.22-0.24-0.51-0.43-0.86-0.56c-0.35-0.14-0.76-0.2-1.25-0.2c-0.61,0-1.14,0.08-1.59,0.24c-0.4,0.14-0.78,0.3-1.17,0.49
		l0.03-0.19v-0.08c0-0.08-0.03-0.16-0.08-0.23c-0.06-0.08-0.16-0.11-0.27-0.11h-0.87c-0.11,0-0.22,0.04-0.31,0.12
		c-0.09,0.07-0.15,0.17-0.18,0.27l-1.58,8.4v0.07c0,0.08,0.03,0.16,0.08,0.23c0.06,0.08,0.16,0.11,0.26,0.11h0.88
		c0.11,0,0.22-0.04,0.32-0.11c0.09-0.07,0.16-0.17,0.19-0.27l1.31-6.9c0.54-0.24,1-0.4,1.36-0.48c0.37-0.08,0.73-0.12,1.07-0.12
		c0.64,0,1.06,0.11,1.25,0.31c0.21,0.2,0.31,0.48,0.31,0.86c0,0.12-0.01,0.27-0.03,0.42c-0.02,0.16-0.04,0.31-0.06,0.46l-1.03,5.42
		v0.07c0,0.21,0.15,0.34,0.37,0.34h0.85c0.11,0,0.22-0.04,0.32-0.11c0.09-0.07,0.16-0.17,0.19-0.28l1.03-5.41
		c0.06-0.31,0.09-0.61,0.09-0.91c0-0.36-0.05-0.7-0.16-1.01C190.34,24.77,190.18,24.49,189.95,24.25 M171.87,24.25
		c-0.22-0.24-0.51-0.43-0.86-0.57c-0.35-0.14-0.76-0.2-1.24-0.2c-0.61,0-1.14,0.08-1.59,0.24c-0.39,0.14-0.78,0.3-1.16,0.49
		l0.03-0.18v-0.08c0-0.09-0.03-0.16-0.08-0.23c-0.06-0.08-0.16-0.12-0.27-0.12h-0.87c-0.11,0-0.22,0.04-0.31,0.12
		c-0.09,0.07-0.15,0.17-0.18,0.27l-1.58,8.4v0.08c0,0.08,0.03,0.16,0.08,0.23c0.06,0.08,0.16,0.11,0.27,0.11h0.87
		c0.11,0,0.22-0.04,0.32-0.11c0.1-0.08,0.16-0.17,0.19-0.28l1.31-6.9c0.55-0.24,1-0.4,1.36-0.48c0.37-0.08,0.73-0.12,1.07-0.12
		c0.64,0,1.06,0.11,1.26,0.31c0.21,0.2,0.31,0.48,0.31,0.86c0,0.13-0.01,0.27-0.03,0.42c-0.02,0.16-0.04,0.31-0.06,0.46l-1.03,5.42
		v0.08c0,0.21,0.15,0.34,0.36,0.34h0.85c0.12,0,0.23-0.04,0.32-0.11c0.09-0.07,0.16-0.17,0.19-0.27l1.03-5.41
		c0.06-0.31,0.09-0.61,0.09-0.9c0-0.36-0.05-0.7-0.16-1.01C172.26,24.78,172.1,24.49,171.87,24.25 M162.73,24.4
		c-0.28-0.28-0.63-0.5-1.04-0.67c-0.41-0.17-0.9-0.25-1.47-0.25c-1.28,0-2.34,0.35-3.15,1.07c-0.82,0.71-1.36,1.73-1.63,3.06
		l-0.23,1.15c-0.07,0.36-0.11,0.71-0.11,1.04c0,0.57,0.1,1.05,0.31,1.45c0.21,0.39,0.48,0.72,0.81,0.96
		c0.33,0.25,0.72,0.43,1.15,0.54c0.42,0.11,0.86,0.16,1.3,0.16h0.01c0.61,0,1.14-0.02,1.62-0.07c0.47-0.05,0.97-0.12,1.51-0.21
		c0.16-0.02,0.28-0.06,0.36-0.14c0.07-0.07,0.11-0.17,0.14-0.3l0.11-0.56l0-0.01v-0.07c0-0.16-0.15-0.25-0.31-0.25h-0.11
		c-0.43,0.05-0.91,0.11-1.46,0.16c-0.55,0.05-1.09,0.07-1.61,0.07c-0.67,0-1.2-0.14-1.58-0.4c-0.37-0.26-0.56-0.67-0.56-1.28
		c0-0.15,0.01-0.31,0.03-0.47c0.02-0.16,0.05-0.33,0.11-0.51l0.04-0.14h5.88c0.14,0,0.27-0.04,0.34-0.13
		c0.06-0.08,0.11-0.18,0.13-0.3l0.14-0.69c0.07-0.35,0.11-0.69,0.11-1c0-0.44-0.07-0.84-0.2-1.23
		C163.22,25.02,163.01,24.68,162.73,24.4 M161.72,27.46l0,0.02h-4.54c0.08-0.37,0.2-0.71,0.36-1.02c0.16-0.31,0.36-0.58,0.6-0.82
		c0.24-0.23,0.51-0.41,0.82-0.54c0.31-0.12,0.65-0.19,1.03-0.19c1.25,0.01,1.82,0.53,1.83,1.66
		C161.82,26.84,161.79,27.14,161.72,27.46 M181.24,23.85h-0.85c-0.11,0-0.22,0.04-0.32,0.12c-0.09,0.07-0.16,0.17-0.19,0.27
		l-1.52,8.16v0.08c0,0.21,0.15,0.34,0.37,0.34h0.86c0.11,0,0.22-0.04,0.31-0.11c0.1-0.08,0.16-0.17,0.19-0.28l1.52-8.15v-0.08
		C181.61,23.98,181.45,23.85,181.24,23.85 M138.7,22.05c-0.11-0.18-0.26-0.32-0.42-0.43c-0.17-0.1-0.35-0.17-0.54-0.21
		c-0.18-0.03-0.36-0.05-0.54-0.05c-0.18,0-0.37,0.02-0.57,0.06c-0.21,0.04-0.4,0.12-0.6,0.21c-0.2,0.1-0.39,0.24-0.56,0.41
		c-0.17,0.17-0.33,0.39-0.47,0.66l-5.23,9.49c-0.04,0.07-0.05,0.15-0.05,0.24c0,0.1,0.03,0.21,0.12,0.29
		c0.09,0.07,0.19,0.09,0.29,0.09h1.08c0.11,0,0.22-0.04,0.31-0.1c0.1-0.06,0.17-0.14,0.21-0.25l1.8-3.68h4.35l0.43,3.64
		c0.02,0.1,0.05,0.18,0.1,0.25c0.07,0.1,0.19,0.14,0.3,0.14h1.08c0.13,0,0.25-0.03,0.34-0.13c0.09-0.09,0.12-0.22,0.12-0.35v-0.08
		l-1.34-9.52C138.89,22.47,138.81,22.24,138.7,22.05 M134.3,27.25l2.26-4.08c0.08-0.16,0.3-0.19,0.43-0.18
		c0.28,0.01,0.31,0.18,0.31,0.18l0.48,4.08H134.3z"/>
	<path class="st2" d="M198.26,16.64c-3.48,0.6-8.21,1.05-11.78,2.12c-0.05,0.02-0.04,0.04,0.01,0.04c8.6-0.26,17.9-0.21,24.86,0.02
		l0.04-0.05c-0.17-0.82-0.8-1.75-2.73-1.74h-1.11l-0.02,0.03c0.31,0.79-0.57,1.31-1.13,0.83c-0.24-0.2-0.48-0.7,0.13-1.13
		c0.45-0.32,1.16-0.78,1.57-1.04c1.47-0.93,1.27-2.27-0.69-2.42c-4.72-0.36-13.16-0.84-16.49-1.11c-0.08-0.01-0.12,0.05-0.07,0.08
		c2.76,1.49,5.27,1.63,8.02,2.66C200.44,15.51,200.13,16.31,198.26,16.64"/>
	<line class="st4" x1="47.39" y1="11.43" x2="47.39" y2="38.05"/>
</g>
</svg>
